<svg fill="#ffff" viewBox="-25.6 -25.6 307.20 307.20" id="Flat" xmlns="http://www.w3.org/2000/svg" stroke="#ffff"><g id="SVGRepo_bgCarrier" stroke-width="0" transform="translate(62.72,62.72), scale(0.51)"><rect x="-25.6" y="-25.6" width="307.20" height="307.20" rx="153.6" fill="#323232" strokewidth="0"></rect></g><g id="SVGRepo_tracerCarrier" stroke-linecap="round" stroke-linejoin="round" stroke="#CCCCCC" stroke-width="0.512"></g><g id="SVGRepo_iconCarrier"> <path d="M128,24A104,104,0,1,0,232,128,104.12041,104.12041,0,0,0,128,24ZM80,140a12,12,0,1,1,12-12A12.0006,12.0006,0,0,1,80,140Zm48,0a12,12,0,1,1,12-12A12.0006,12.0006,0,0,1,128,140Zm48,0a12,12,0,1,1,12-12A12.0006,12.0006,0,0,1,176,140Z"></path> </g></svg>